# xmcd
#
# Track frame offsets:
#	150
#	34950
#	81622
#	125270
#	172402
#	207524
#	244268
#	291924
#
# Disc length: 4428 seconds
#
# Revision: 0
# Processed by: cddbd v1.5.1PL0 Copyright (c) Steve Scherf et al.
# Submitted via: dBpowerAMP V4.0
#
DISCID=81114a08
DTITLE=Dan Brown - DF07 - Digital Fortress
DYEAR=2004
DGENRE=Spoken
TTITLE0=0701 Digital Fortress
TTITLE1=0702 Digital Fortress
TTITLE2=0703 Digital Fortress
TTITLE3=0704 Digital Fortress
TTITLE4=0705 Digital Fortress
TTITLE5=0706 Digital Fortress
TTITLE6=0707 Digital Fortress
TTITLE7=0708 Digital Fortress
EXTD=
EXTT0=
EXTT1=
EXTT2=
EXTT3=
EXTT4=
EXTT5=
EXTT6=
EXTT7=
PLAYORDER=
